#!OML:ASF F:\VICON\USERDATA\INSTALL\rory3\rory3.ASF
:FULLY-SPECIFIED
:DEGREES
173
root 5.08467 18.4388 9.36339 -173.451 -51.4327 171.034
lowerback 9.05586 -1.81227 -8.29075
upperback 2.20537 -3.46867 -2.76056
thorax -2.46594 -1.77786 2.14964
lowerneck -9.86871 -1.93493 -7.57762
upperneck 24.1315 -4.33901 8.67018
head 9.54903 -2.15797 3.7689
rclavicle -1.20265e-014 0
rhumerus -35.8521 0.303822 -79.3368
rradius 37.0514
rwrist 18.0547
rhand -19.8405 6.89148
rfingers 7.12502
rthumb 6.49383 -22.989
lclavicle -1.20265e-014 0
lhumerus -18.466 11.4912 81.7781
lradius 18.4613
lwrist -7.98283
lhand -30.43 21.9699
lfingers 7.12502
lthumb -3.73274 51.917
rfemur -28.8613 11.6166 16.1123
rtibia 42.5371
rfoot -17.5491 -19.9352
rtoes 0.457359
lfemur 3.32125 1.76716 -27.5921
ltibia 20.6322
lfoot -20.7452 13.2581
ltoes -6.89157
174
root 5.02596 18.4461 9.3231 -173.55 -51.4451 171.287
lowerback 8.97868 -1.963 -7.98215
upperback 2.14807 -3.62469 -2.70505
thorax -2.48337 -1.8508 2.05003
lowerneck -9.86138 -1.93668 -7.69031
upperneck 24.1026 -4.34825 8.78164
head 9.54272 -2.1623 3.82632
rclavicle -7.02704e-014 5.56597e-015
rhumerus -36.1432 0.347761 -79.1924
rradius 36.9293
rwrist 17.9772
rhand -19.6157 6.85578
rfingers 7.12502
rthumb 6.71078 -23.0179
lclavicle -7.02704e-014 5.56597e-015
lhumerus -18.4756 10.3734 82.1718
lradius 19.0434
lwrist -7.21775
lhand -30.3459 21.5692
lfingers 7.12502
lthumb -3.65145 51.5176
rfemur -28.7015 11.6861 16.4474
rtibia 42.3749
rfoot -16.9021 -19.9256
rtoes -0.116002
lfemur 3.41765 2.11815 -27.3512
ltibia 20.6782
lfoot -20.6852 13.0649
ltoes -7.35588
175
root 4.97026 18.4426 9.27898 -173.34 -51.4392 171.234
lowerback 8.82093 -2.1219 -7.98814
upperback 2.08752 -3.81256 -2.62148
thorax -2.43521 -1.941 2.15113
lowerneck -9.93346 -1.94337 -7.79576
upperneck 24.1182 -4.3258 8.75652
head 9.56174 -2.16177 3.83831
rclavicle 5.66536e-015 -2.78299e-014
rhumerus -36.3423 0.254847 -78.9224
rradius 36.6845
rwrist 18.1412
rhand -19.7347 7.2781
rfingers 7.12502
rthumb 6.59593 -22.5992
lclavicle 5.66536e-015 -2.78299e-014
lhumerus -18.5527 9.36808 82.6024
lradius 19.8357
lwrist -6.31248
lhand -30.1087 21.3798
lfingers 7.12502
lthumb -3.42247 51.332
rfemur -28.6067 11.9559 16.4733
rtibia 42.1313
rfoot -16.2732 -19.8369
rtoes 0.516136
lfemur 3.39238 2.5172 -27.2973
ltibia 20.7696
lfoot -20.6116 12.8647
ltoes -8.1195
176
root 4.91628 18.43 9.23216 -173.091 -51.4552 171.045
lowerback 8.73381 -2.2523 -8.07296
upperback 2.06555 -3.98135 -2.58347
thorax -2.38525 -2.02457 2.24845
lowerneck -10.1145 -1.9968 -7.7488
upperneck 24.1563 -4.37551 8.66839
head 9.61257 -2.18353 3.79308
rclavicle -1.10325e-014 -3.89618e-014
rhumerus -36.507 -0.108014 -78.604
rradius 36.441
rwrist 18.3619
rhand -19.7679 7.91319
rfingers 7.12502
rthumb 6.56385 -21.9651
lclavicle -1.10325e-014 -3.89618e-014
lhumerus -18.4836 8.78748 82.9587
lradius 20.5076
lwrist -5.90719
lhand -29.8458 21.0361
lfingers 7.12502
lthumb -3.16857 50.9923
rfemur -28.4018 12.4447 16.3068
rtibia 41.8174
rfoot -15.9375 -19.5663
rtoes 3.55644
lfemur 3.43141 2.95996 -27.2863
ltibia 20.9027
lfoot -20.5981 12.4309
ltoes -8.44047
177
root 4.85933 18.4222 9.18659 -172.873 -51.4594 170.949
lowerback 8.5917 -2.36126 -7.98506
upperback 2.00727 -4.10296 -2.58966
thorax -2.36214 -2.08311 2.19848
lowerneck -10.1286 -2.04808 -7.70207
upperneck 24.0858 -4.45378 8.68621
head 9.5975 -2.21247 3.78067
rclavicle 7.49418e-014 6.20208e-014
rhumerus -36.7606 -0.486229 -78.354
rradius 36.2632
rwrist 18.4724
rhand -19.6985 7.8051
rfingers 7.12502
rthumb 6.63085 -22.0711
lclavicle 7.49418e-014 6.20208e-014
lhumerus -18.4089 8.10067 83.297
lradius 21.1263
lwrist -5.55009
lhand -29.7357 21.2007
lfingers 7.12502
lthumb -3.06224 51.1585
rfemur -28.173 12.8922 16.1804
rtibia 41.4791
rfoot -15.8108 -19.1735
rtoes 7.50662
lfemur 3.42412 3.23837 -27.2515
ltibia 21.0716
lfoot -20.6943 11.9599
ltoes -7.82207
178
root 4.79997 18.4195 9.13936 -172.447 -51.5142 170.624
lowerback 8.46484 -2.4863 -8.00987
upperback 1.8955 -4.2625 -2.62256
thorax -2.39412 -2.15675 2.18853
lowerneck -10.048 -2.05578 -7.67859
upperneck 23.9702 -4.46276 8.68519
head 9.54158 -2.21559 3.77326
rclavicle -1.22948e-013 -2.94201e-014
rhumerus -37.0778 -0.658142 -78.1523
rradius 36.0246
rwrist 18.5314
rhand -19.7011 7.53023
rfingers 7.12502
rthumb 6.62837 -22.346
lclavicle -1.22948e-013 -2.94201e-014
lhumerus -18.5799 7.0179 83.6519
lradius 21.9968
lwrist -4.63681
lhand -29.6643 21.0571
lfingers 7.12502
lthumb -2.99325 51.0158
rfemur -27.9063 13.1071 15.9606
rtibia 41.1341
rfoot -15.8727 -18.8154
rtoes 9.47912
lfemur 3.36464 3.46836 -27.3602
ltibia 21.3021
lfoot -20.7067 11.589
ltoes -7.74857
179
root 4.742 18.4148 9.08709 -172.054 -51.5782 170.266
lowerback 8.39205 -2.60658 -8.13944
upperback 1.83715 -4.42539 -2.59072
thorax -2.38677 -2.23444 2.30411
lowerneck -10.128 -2.07385 -7.82698
upperneck 23.9268 -4.46951 8.78629
head 9.54771 -2.21762 3.83311
rclavicle 3.19049e-014 -1.07344e-014
rhumerus -37.2549 -0.819306 -77.8692
rradius 35.685
rwrist 18.7053
rhand -20.0482 7.65087
rfingers 7.12502
rthumb 6.29328 -22.2356
lclavicle 3.19049e-014 -1.07344e-014
lhumerus -18.7151 6.09229 84.0487
lradius 22.9582
lwrist -3.65812
lhand -29.5567 20.7015
lfingers 7.12502
lthumb -2.88936 50.6617
rfemur -27.5138 13.4571 15.7591
rtibia 40.7737
rfoot -15.5542 -19.8552
rtoes 10.5737
lfemur 3.37344 3.78024 -27.4424
ltibia 21.5557
lfoot -20.656 11.1184
ltoes -7.98749
180
root 4.68396 18.4065 9.03257 -171.786 -51.6491 170.036
lowerback 8.32589 -2.71094 -8.1475
upperback 1.77449 -4.55721 -2.56924
thorax -2.40014 -2.29616 2.33998
lowerneck -10.1717 -2.10754 -7.80324
upperneck 23.917 -4.50307 8.73192
head 9.55452 -2.23478 3.80534
rclavicle -1.53263e-013 3.57812e-014
rhumerus -37.5128 -1.11193 -77.5603
rradius 35.4219
rwrist 18.8016
rhand -19.989 7.46115
rfingers 7.12502
rthumb 6.35043 -22.4237
lclavicle -1.53263e-013 3.57812e-014
lhumerus -18.8109 5.55313 84.3558
lradius 23.7969
lwrist -3.20168
lhand -29.5128 20.7704
lfingers 7.12502
lthumb -2.84696 50.7312
rfemur -27.0479 13.8828 15.6451
rtibia 40.4053
rfoot -15.475 -20.718
rtoes 11.9753
lfemur 3.42547 3.9893 -27.4346
ltibia 21.7938
lfoot -20.6523 10.5851
ltoes -7.35855
181
root 4.6276 18.3995 8.9749 -171.45 -51.7748 169.795
lowerback 8.16281 -2.81196 -8.14362
upperback 1.70993 -4.67502 -2.58109
thorax -2.36663 -2.35312 2.32717
lowerneck -10.1592 -2.17816 -7.5631
upperneck 23.8555 -4.59609 8.53809
head 9.53036 -2.27516 3.6829
rclavicle 3.27001e-014 4.37326e-015
rhumerus -37.8392 -1.3717 -77.3345
rradius 35.2281
rwrist 18.6748
rhand -19.9341 7.30687
rfingers 7.12502
rthumb 6.40347 -22.5763
lclavicle 3.27001e-014 4.37326e-015
lhumerus -18.8573 5.10552 84.604
lradius 24.537
lwrist -2.87665
lhand -29.4887 20.5872
lfingers 7.12502
lthumb -2.82368 50.5483
rfemur -26.6404 14.1743 15.5213
rtibia 40.0287
rfoot -15.5807 -21.0355
rtoes 12.1135
lfemur 3.38121 4.17386 -27.3999
ltibia 22.0814
lfoot -20.657 9.96223
ltoes -6.71176
182
root 4.57066 18.3919 8.91784 -171.08 -51.8672 169.491
lowerback 8.04194 -2.91477 -8.20653
upperback 1.61608 -4.8053 -2.56446
thorax -2.378 -2.41284 2.38482
lowerneck -10.0938 -2.26198 -7.56282
upperneck 23.7677 -4.7222 8.57301
head 9.49983 -2.33176 3.67918
rclavicle 6.24184e-014 -2.42517e-014
rhumerus -38.1266 -1.77455 -76.9969
rradius 34.8743
rwrist 18.7846
rhand -20.1037 7.50829
rfingers 7.12502
rthumb 6.23973 -22.3798
lclavicle 6.24184e-014 -2.42517e-014
lhumerus -18.9765 4.61573 84.8812
lradius 25.3374
lwrist -2.47499
lhand -29.5604 20.1394
lfingers 7.12502
lthumb -2.89293 50.0996
rfemur -26.2929 14.3711 15.3886
rtibia 39.7587
rfoot -15.6995 -21.0415
rtoes 12.8764
lfemur 3.32558 4.61985 -27.3955
ltibia 22.4006
lfoot -20.3512 9.50488
ltoes -7.97022
183
root 4.51274 18.3923 8.85986 -170.839 -51.9718 169.271
lowerback 7.99088 -3.01356 -8.19679
upperback 1.55272 -4.92698 -2.50281
thorax -2.39878 -2.46858 2.45173
lowerneck -10.1113 -2.36606 -7.7525
upperneck 23.7149 -4.84385 8.65499
head 9.5029 -2.39474 3.72591
rclavicle -7.57867e-014 -1.66979e-014
rhumerus -38.3156 -2.43143 -76.4684
rradius 34.3928
rwrist 19.323
rhand -20.2173 7.89862
rfingers 7.12502
rthumb 6.13007 -21.9927
lclavicle -7.57867e-014 -1.66979e-014
lhumerus -19.1018 4.27254 85.1824
lradius 26.1377
lwrist -2.32834
lhand -29.574 19.7297
lfingers 7.12502
lthumb -2.90607 49.6897
rfemur -25.9723 14.3589 15.4135
rtibia 39.6659
rfoot -15.8412 -21.1868
rtoes 12.7771
lfemur 3.29612 5.08047 -27.3216
ltibia 22.7678
lfoot -19.8981 9.19186
ltoes -10.2761
